HIERARCHY
ROOT Hips
{
	OFFSET 0.00000 0.00000 0.00000
	CHANNELS 6 Xposition Yposition Zposition Zrotation Yrotation Xrotation 
	JOINT LHipJoint
	{
		OFFSET 0 0 0
		CHANNELS 3 Zrotation Yrotation Xrotation
		JOINT LeftHip
		{
			OFFSET 1.77779 -1.88989 0.48267
			CHANNELS 3 Zrotation Yrotation Xrotation
			JOINT LeftKnee
			{
				OFFSET 2.53442 -6.96327 0.00000
				CHANNELS 3 Zrotation Yrotation Xrotation
				JOINT LeftAnkle
				{
					OFFSET 2.71068 -7.44755 0.00000
					CHANNELS 3 Zrotation Yrotation Xrotation
					JOINT LeftToe
					{
						OFFSET 0.17992 -0.49431 2.22524
						CHANNELS 3 Zrotation Yrotation Xrotation
						End Site
						{
							OFFSET 0.00000 -0.00000 1.14687
						}
					}
				}
			}
		}
	}
	JOINT RHipJoint
	{
		OFFSET 0 0 0
		CHANNELS 3 Zrotation Yrotation Xrotation
		JOINT RightHip
		{
			OFFSET -1.58469 -1.88989 0.48267
			CHANNELS 3 Zrotation Yrotation Xrotation
			JOINT RightKnee
			{
				OFFSET -2.60386 -7.15404 0.00000
				CHANNELS 3 Zrotation Yrotation Xrotation
				JOINT RightAnkle
				{
					OFFSET -2.73334 -7.50979 0.00000
					CHANNELS 3 Zrotation Yrotation Xrotation
					JOINT RightToe
					{
						OFFSET -0.25618 -0.70384 2.21822
						CHANNELS 3 Zrotation Yrotation Xrotation
						End Site
						{
							OFFSET -0.00000 -0.00000 1.16381
						}
					}
				}
			}
		}
	}
	JOINT lowerback
	{
		OFFSET 0 0 0
		CHANNELS 3 Zrotation Yrotation Xrotation
		JOINT Chest
		{
			OFFSET 0.03410 2.01612 -0.22230
			CHANNELS 3 Zrotation Yrotation Xrotation
			JOINT Chest2
			{
				OFFSET 0.03465 2.03012 0.00937
				CHANNELS 3 Zrotation Yrotation Xrotation
				JOINT lowerneck
				{
					OFFSET 0 0 0
					CHANNELS 3 Zrotation Yrotation Xrotation
					JOINT Neck
					{
						OFFSET -0.00219 1.70459 0.20857
						CHANNELS 3 Zrotation Yrotation Xrotation
						JOINT Head
						{
							OFFSET 0.02518 1.72339 -0.22179
							CHANNELS 3 Zrotation Yrotation Xrotation
							End Site
							{
								OFFSET 0.00282 1.74122 -0.09823
							}
						}
					}
				}
				JOINT LeftCollar
				{
					OFFSET 0 0 0
					CHANNELS 3 Zrotation Yrotation Xrotation
					JOINT LeftShoulder
					{
						OFFSET 3.36358 1.00547 -0.37661
CHANNELS 3 Zrotation Xrotation Yrotation
						JOINT LeftElbow
						{
OFFSET 0 -5.065070 0.000000
CHANNELS 3 Zrotation Xrotation Yrotation
							JOINT LeftWrist
							{
OFFSET 0 -3.601960 0.000000
CHANNELS 3 Zrotation Xrotation Yrotation
								JOINT lhand
								{
									OFFSET 0 0 0
CHANNELS 3 Zrotation Xrotation Yrotation
									JOINT LFingers
									{
OFFSET 0 -0.450350 0.000000
CHANNELS 3 Zrotation Xrotation Yrotation
										End Site
										{
OFFSET 0 -0.363080 0.000000
										}
									}
								}
								JOINT LThumb
								{
OFFSET 0 0.000000 0.000000
CHANNELS 3 Zrotation Xrotation Yrotation
									End Site
									{
OFFSET 0 -0.368620 0.368620
									}
								}
							}
						}
					}
				}
				JOINT RightCollar
				{
					OFFSET 0 0 0
					CHANNELS 3 Zrotation Yrotation Xrotation
					JOINT RightShoulder
					{
						OFFSET -3.50159 0.80383 -0.71526
CHANNELS 3 Zrotation Xrotation Yrotation
						JOINT RightElbow
						{
OFFSET 0 -5.363940 0.000000
CHANNELS 3 Zrotation Xrotation Yrotation
							JOINT RightWrist
							{
OFFSET 0 -3.580350 0.000000
CHANNELS 3 Zrotation Xrotation Yrotation
								JOINT rhand
								{
									OFFSET 0 0 0
CHANNELS 3 Zrotation Xrotation Yrotation
									JOINT RFingers
									{
OFFSET 0 -0.663750 0.000000
CHANNELS 3 Zrotation Xrotation Yrotation
										End Site
										{
OFFSET 0 -0.535130 0.000000
										}
									}
								}
								JOINT RThumb
								{
OFFSET 0 0.000000 0.000000
CHANNELS 3 Zrotation Xrotation Yrotation
									End Site
									{
OFFSET 0 -0.543300 0.543300
									}
								}
							}
						}
					}
				}
			}
		}
	}
}
MOTION
Frames: 4
Frame Time: 0.008333333333333333
1.318900 18.028400 -29.617100 0.296800 -2.159100 -4.138800 0.000000 0.000000 0.000000 -23.357200 -3.651400 -8.153100 1.394900 7.471900 21.121300 0.186100 -9.147600 -9.374700 0.075500 -1.772900 -4.878400 0.000000 0.000000 0.000000 20.469700 5.504100 -17.405700 -13.312300 -18.892000 70.092700 -0.022100 -2.003300 -4.252400 -0.003300 -0.369500 1.015100 -0.931700 0.681900 11.667800 0.703200 0.823900 1.250500 1.129900 0.431900 -5.257500 -1.553800 -2.801000 -16.175400 -0.924100 -3.285000 24.921100 -0.524800 -1.764300 10.699200 0.000000 0.000000 0.000000 5.194600 2.991800 -22.334400 10.240600 -17.115000 1.545000 29.684000 9.351600 -17.934300 0.000000 0.000000 0.000000 -7.125000 0.000000 0.000000 1.654600 50.405000 -0.220500 0.000000 0.000000 0.000000 -1.958500 -6.052200 6.455500 -14.268900 -23.117800 -2.932900 -19.644800 -3.252700 -22.537100 0.000000 0.000000 0.000000 7.125000 0.000000 -0.000000 5.811800 6.303200 5.165900
1.323204 18.027525 -29.502415 0.498593 -1.965769 -4.130775 0.000000 0.000000 0.000000 -23.638879 -3.452671 -7.785626 1.392420 7.465553 21.102113 0.221556 -9.315907 -9.931857 0.093374 -1.967471 -5.415932 0.000000 0.000000 0.000000 20.145488 5.557868 -18.209298 -13.247297 -18.869603 69.891782 -0.038515 -1.987542 -4.965243 -0.005343 -0.467478 1.284523 -1.286990 0.610477 12.019224 0.775644 0.683389 0.777168 1.426681 0.380029 -5.954147 -1.631716 -2.762990 -15.155271 -0.989541 -3.215912 24.906144 -0.508020 -1.750730 10.495875 0.000000 0.000000 0.000000 5.237570 3.582078 -22.685751 10.436776 -17.419660 1.603437 29.476297 9.517791 -18.400190 0.000000 0.000000 0.000000 -7.125000 0.000000 0.000000 1.372264 50.887305 -0.197884 0.000000 0.000000 0.000000 -2.056697 -4.785630 6.723828 -14.392996 -23.293694 -2.981853 -19.681423 -3.707793 -22.572483 0.000000 0.000000 0.000000 7.125000 0.000000 0.000000 5.791737 6.261032 5.152622
1.324708 18.026557 -29.387592 0.546680 -1.622589 -4.089144 0.000000 0.000000 0.000000 -23.732741 -3.389054 -7.526729 1.417164 7.528346 21.290530 0.253936 -9.609732 -10.481071 0.098715 -2.026378 -5.578564 0.000000 0.000000 0.000000 20.018092 5.546352 -19.044988 -13.158054 -18.838345 69.615572 -0.058465 -1.878678 -5.642597 -0.006513 -0.519823 1.428428 -1.305532 0.537952 11.843052 0.727575 0.584196 1.031462 1.403883 0.326827 -5.585042 -1.486005 -2.829610 -15.895280 -0.959580 -3.345292 24.985717 -0.553954 -1.789911 10.666898 0.000000 0.000000 0.000000 5.605812 2.663300 -23.408788 10.550911 -17.596690 1.637633 29.581424 9.532939 -19.041043 0.000000 0.000000 0.000000 -7.125000 0.000000 0.000000 1.376820 51.621196 -0.226320 0.000000 0.000000 0.000000 -1.862908 -4.987486 6.517678 -14.445703 -23.368312 -3.002663 -19.792283 -3.900373 -22.436439 0.000000 0.000000 0.000000 7.125000 0.000000 0.000000 5.711120 6.384874 5.066669
1.324128 18.022668 -29.273065 0.505579 -1.207508 -4.029659 0.000000 0.000000 0.000000 -23.713056 -3.387789 -7.340565 1.456455 7.627643 21.588794 0.281675 -9.985439 -10.988594 0.093257 -1.967524 -5.415911 0.000000 0.000000 0.000000 20.008091 5.504791 -19.895413 -13.051494 -18.800547 69.285293 -0.082346 -1.641036 -6.279407 -0.006925 -0.536021 1.472924 -1.155429 0.478474 11.503676 0.618888 0.522626 1.574171 1.217518 0.283008 -4.819282 -1.203181 -2.964014 -17.433663 -0.897304 -3.603868 25.144707 -0.645112 -1.868128 11.020548 0.000000 0.000000 0.000000 6.144672 1.086606 -24.326182 10.619131 -17.702176 1.658305 29.846841 9.420059 -19.634027 0.000000 0.000000 0.000000 -7.125000 0.000000 0.000000 1.551341 52.331172 -0.280302 0.000000 0.000000 0.000000 -1.504224 -5.803477 6.006342 -14.465221 -23.395812 -3.010422 -19.888299 -3.917766 -22.265812 0.000000 0.000000 0.000000 7.125000 0.000000 0.000000 5.637011 6.546748 4.982292
